<?xml version="1.0" encoding="utf-8"?>
<!-- Generator: Adobe Illustrator 24.1.2, SVG Export Plug-In . SVG Version: 6.00 Build 0)  -->
<svg version="1.1" id="Layer_1" xmlns="http://www.w3.org/2000/svg" xmlns:xlink="http://www.w3.org/1999/xlink" x="0px" y="0px"
	 viewBox="0 0 100 100" style="enable-background:new 0 0 100 100;" xml:space="preserve">
<style type="text/css">
	.st0{fill:#FFFFFF;}
	.st1{opacity:0.75;fill:#FFFFFF;}
	.st2{opacity:0.5;fill:#FFFFFF;}
</style>
<path class="st0" d="M96.8,41.2H51v18.8h26.2c-1.1,6.1-4.6,11.2-9.7,14.7L83.2,87c9.2-8.5,14.5-21,14.5-35.8
	C97.7,47.7,97.4,44.4,96.8,41.2z"/>
<path class="st1" d="M67.5,74.8c-4.4,2.9-9.9,4.6-16.5,4.6c-12.7,0-23.4-8.6-27.2-20.1L7.5,72c8,15.9,24.5,26.8,43.5,26.8
	c13.1,0,24.2-4.4,32.2-11.8L67.5,74.8z"/>
<path class="st2" d="M23.7,40.8L7.5,28.2c-3.3,6.6-5.2,14-5.2,21.9C2.3,58,4.2,65.4,7.5,72l16.3-12.6c-1-2.9-1.5-6-1.5-9.3
	C22.2,46.9,22.8,43.8,23.7,40.8z"/>
<path class="st0" d="M51,1.4c-19,0-35.5,10.9-43.5,26.8l16.3,12.6C27.6,29.3,38.3,20.8,51,20.8c7.1,0,13.6,2.5,18.6,7.3l14-14
	C75.1,6.2,64.1,1.4,51,1.4z"/>
</svg>
