<?xml version="1.0" encoding="utf-8"?>
<!-- Generator: Adobe Illustrator 24.1.2, SVG Export Plug-In . SVG Version: 6.00 Build 0)  -->
<svg version="1.1" id="Layer_1" xmlns="http://www.w3.org/2000/svg" xmlns:xlink="http://www.w3.org/1999/xlink" x="0px" y="0px"
	 viewBox="0 0 65.6 34" style="enable-background:new 0 0 65.6 34;" xml:space="preserve">
<style type="text/css">
	.st0{fill:#FFA551;}
</style>
<path class="st0" d="M47.6,1.9c-0.8-0.6-1.7-1-2.8-1c-1.2,0-2.2,0.4-2.9,1s-1.1,1.6-1.1,2.7c0,3.5,4.1,6.6,4.1,6.6
	c0.2,0,4-3.1,4-6.8C48.8,3.5,48.4,2.6,47.6,1.9z M44.7,6.5c-1,0-1.7-0.8-1.7-1.7s0.8-1.7,1.7-1.7s1.7,0.8,1.7,1.7S45.7,6.5,44.7,6.5
	z"/>
<path class="st0" d="M2.1,10.6c-0.4-0.4-0.6-0.9-0.6-1.5S1.6,8,2.1,7.5c0.4-0.4,1-0.6,1.6-0.6s1.2,0.2,1.6,0.6
	C5.7,7.9,5.9,8.4,5.9,9c0,0.6-0.2,1.2-0.6,1.6c-0.4,0.4-0.9,0.6-1.6,0.6C3,11.2,2.5,11,2.1,10.6z M5.4,13.5V28H1.9V13.5H5.4z"/>
<path class="st0" d="M16.1,28c-0.6,0.2-1.2,0.2-1.8,0.2c-1.6,0-2.8-0.4-3.6-1.3c-0.9-0.9-1.3-2.1-1.3-3.7v-6.6H7.2v-2.9h2.2v-3.5
	h3.5v3.5h3.6v2.9h-3.6v6.6c0,0.7,0.2,1.2,0.5,1.5c0.3,0.4,0.8,0.5,1.4,0.5c0.7,0,1.2-0.2,1.7-0.6l1,2.6C17.1,27.6,16.6,27.8,16.1,28
	z"/>
<path class="st0" d="M16.8,12.1V9h15.5v3.1h-5.9V28h-3.6V12.1H16.8z"/>
<path class="st0" d="M37.9,13.9c0.8-0.4,1.8-0.6,2.9-0.6v3.4c-0.2,0-0.5,0-0.8,0c-1.2,0-2.2,0.4-2.9,1.1c-0.7,0.7-1,1.8-1,3.2v7
	h-3.5V13.5H36v2.2C36.5,14.9,37.1,14.3,37.9,13.9z"/>
<rect x="43" y="13.5" class="st0" width="3.5" height="14.5"/>
<path class="st0" d="M61.5,14.2c1,0.6,1.9,1.5,2.5,2.6c0.6,1.1,0.9,2.4,0.9,3.9c0,1.5-0.3,2.8-0.9,3.9c-0.6,1.1-1.4,2-2.5,2.6
	c-1,0.6-2.2,0.9-3.5,0.9c-1.9,0-3.4-0.7-4.4-2.1v7.2h-3.5V13.5h3.4v2c0.5-0.7,1.2-1.3,1.9-1.7c0.8-0.4,1.7-0.6,2.7-0.6
	C59.3,13.3,60.5,13.6,61.5,14.2z M60.2,24c0.7-0.8,1.1-1.9,1.1-3.2c0-1.3-0.4-2.4-1.1-3.2s-1.7-1.2-2.8-1.2c-1.1,0-2.1,0.4-2.8,1.2
	c-0.7,0.8-1.1,1.9-1.1,3.2c0,1.3,0.4,2.4,1.1,3.2c0.7,0.8,1.7,1.2,2.8,1.2C58.6,25.2,59.5,24.8,60.2,24z"/>
</svg>
