<?xml version="1.0" encoding="utf-8"?>
<!-- Generator: Adobe Illustrator 24.1.2, SVG Export Plug-In . SVG Version: 6.00 Build 0)  -->
<svg version="1.1" id="Layer_1" xmlns="http://www.w3.org/2000/svg" xmlns:xlink="http://www.w3.org/1999/xlink" x="0px" y="0px"
	 viewBox="0 0 264.8 136.3" style="enable-background:new 0 0 264.8 136.3;" xml:space="preserve">
<style type="text/css">
	.st0{fill:#FFFFFF;}
</style>
<g>
	<path class="st0" d="M190.8,6.6c-3-2.6-6.9-4.1-11.6-4.1c-4.9,0-8.7,1.4-11.8,4.3s-4.5,6.5-4.5,11c0,14.2,16.5,26.8,16.5,26.8
		c0.8,0,16.2-12.8,16.2-27.4C195.4,12.9,193.8,9.3,190.8,6.6z M179,25.1c-3.9,0-6.9-3-6.9-6.9s3-6.9,6.9-6.9s6.9,3,6.9,6.9
		S182.9,25.1,179,25.1z"/>
	<path class="st0" d="M5.7,41.7C4,40.1,3.2,38,3.2,35.6s0.8-4.5,2.5-6.1c1.7-1.7,3.9-2.5,6.5-2.5s4.8,0.8,6.5,2.4
		c1.7,1.6,2.5,3.6,2.5,5.9c0,2.6-0.8,4.7-2.5,6.4c-1.7,1.7-3.8,2.5-6.6,2.5C9.6,44.2,7.4,43.4,5.7,41.7z M19.4,53.6v59H5v-59H19.4z"
		/>
	<path class="st0" d="M62.5,112.5c-2.3,0.6-4.7,0.9-7.2,0.9c-6.3,0-11.2-1.7-14.7-5.2c-3.5-3.5-5.2-8.5-5.2-15V66.3h-8.9V54.7h8.9
		V40.6h14.2v14.1h14.7v11.6H49.7V93c0,2.7,0.7,4.8,2,6.3c1.3,1.5,3.2,2.2,5.6,2.2c2.6,0,5-0.8,7-2.4l4,10.6
		C66.7,110.9,64.8,111.8,62.5,112.5z"/>
	<path class="st0" d="M65.7,48.1V35.4h62.8v12.7h-24v64.6H89.8V48.1H65.7z"/>
	<path class="st0" d="M151.4,55.2c3.3-1.6,7.3-2.4,11.9-2.4v13.8c-0.8-0.1-1.9-0.1-3.2-0.1c-4.9,0-8.8,1.5-11.6,4.5
		c-2.8,3-4.2,7.4-4.2,13.2v28.5H130v-59h13.7v8.8C145.5,59.2,148.1,56.9,151.4,55.2z"/>
	<rect x="172.1" y="53.6" class="st0" width="14.3" height="59"/>
	<path class="st0" d="M247.2,56.6c4.2,2.5,7.6,6,10,10.6c2.4,4.6,3.6,9.9,3.6,16c0,6-1.2,11.2-3.6,15.8s-5.8,8.1-10,10.7
		c-4.2,2.5-9,3.8-14.2,3.8c-7.8,0-13.8-2.9-18-8.6V134h-14.3V53.6h13.7v8.3c2.1-2.9,4.7-5.2,7.8-6.7c3.2-1.5,6.8-2.3,10.8-2.3
		C238.3,52.8,243,54.1,247.2,56.6z M242,96.2c3-3.2,4.5-7.6,4.5-13c0-5.4-1.5-9.8-4.5-13.1c-3-3.3-6.8-4.9-11.3-4.9
		c-4.6,0-8.4,1.6-11.4,4.9c-3,3.3-4.5,7.6-4.5,13.1c0,5.4,1.5,9.8,4.5,13c3,3.2,6.8,4.9,11.4,4.9C235.3,101,239.1,99.4,242,96.2z"/>
</g>
</svg>
