<?xml version="1.0" encoding="utf-8"?>
<!-- Generator: Adobe Illustrator 24.1.2, SVG Export Plug-In . SVG Version: 6.00 Build 0)  -->
<svg version="1.1" id="Layer_1" xmlns="http://www.w3.org/2000/svg" xmlns:xlink="http://www.w3.org/1999/xlink" x="0px" y="0px"
	 viewBox="0 0 1980 818.7" style="enable-background:new 0 0 1980 818.7;" xml:space="preserve">
<style type="text/css">
	.st0{opacity:0.25;}
	.st1{fill:#F6A354;}
	.st2{fill:#706F6F;}
</style>
<g class="st0">
	<g>
		<path class="st1" d="M379.4,554.1c8.6-0.9,38.6-3.7,65.6-3.8c0.8,0,1.5,0.3,2.1,0.8c5.1,4.4,30.4,26.5,39,36.5
			c0.3,0.4,0,0.9-0.5,0.8l-5.3-1.2c-0.4-0.1-0.8-0.3-1.2-0.6c-2.2-1.7-12.1-8.5-40.4-17.7c-31.8-10.4-49.9-13.5-55.3-12.9
			c-0.3,0-0.7,0-1-0.1l-2.7-0.8C378.8,554.9,378.9,554.1,379.4,554.1z"/>
		<g>
			<path class="st2" d="M445.2,578.2c-0.1,0-0.3,0-0.4-0.1l-14.7-4.3c-0.5-0.2-1-0.6-1.1-1.1c-0.1-0.6,0-1.1,0.4-1.5l8.1-7.7
				c0.3-0.3,0.7-0.4,1.2-0.4c0.4,0.1,0.8,0.3,1,0.7l6.9,12.1c0.3,0.6,0.3,1.3-0.1,1.8C446.1,577.9,445.7,578.2,445.2,578.2z
				 M438.4,564.6l-8,7.6l0,0.1l14.7,4.3l0.1-0.1L438.4,564.6z"/>
		</g>
		<path class="st2" d="M441.2,572.7c0,0,0.3,0,0.4-0.1c0.1-0.1,0.1-0.2,0.1-0.2s0.4-1.1,1.9-1.2s1.8,1.2,1.6,1.7
			c-0.1,0.5-1.3,1.8-1.7,1.7s-0.2,0.4-0.1,0.6c0,0,0.2,0,0.1,1.2c-0.1,1.2-0.3,2.6-0.3,2.6s-0.1,0.7-0.7,0.6
			c-0.7-0.1-0.5-0.5-0.6-0.8c0-0.3,0.1-1.8,0.1-1.8l-6.1,3.2c0,0-1,0.6-3,0.8c-2,0.1-4.2-0.1-5,0.3s-1,0.5-1.9,0.4
			c-0.9-0.1-1.3-0.9-1.1-1.7c0.2-0.8,1.1-2.1,2.2-2.5c1.1-0.3,1.3-0.4,2.3-1c1-0.6,2.7-1.4,3.9-1.7c1.2-0.3,4.2-1.4,4.6-1.5
			s2.3-1.1,2.7-0.9S441.2,572.7,441.2,572.7z"/>
	</g>
	<g>
		<path class="st1" d="M1395.9,369.3c5.7-0.6,25.2-2.5,42.9-2.5c0.5,0,1,0.2,1.3,0.5c3.3,2.9,19.9,17.3,25.5,23.9
			c0.2,0.2,0,0.6-0.3,0.5l-3.5-0.8c-0.3-0.1-0.6-0.2-0.8-0.4c-1.4-1.1-7.9-5.5-26.5-11.6c-20.8-6.8-32.7-8.8-36.1-8.4
			c-0.2,0-0.4,0-0.7-0.1l-1.8-0.5C1395.6,369.8,1395.6,369.3,1395.9,369.3z"/>
		<g>
			<path class="st2" d="M1439,385c-0.1,0-0.2,0-0.3,0l-9.6-2.8c-0.4-0.1-0.6-0.4-0.7-0.8c-0.1-0.4,0-0.7,0.3-1l5.3-5.1
				c0.2-0.2,0.5-0.3,0.8-0.2c0.3,0,0.5,0.2,0.7,0.5l0,0l4.5,7.9c0.2,0.4,0.2,0.8-0.1,1.2C1439.6,384.9,1439.3,385,1439,385z
				 M1434.5,376.1l-5.2,5l9.6,2.9L1434.5,376.1z"/>
		</g>
		<path class="st2" d="M1436.4,381.4c0,0,0.2,0,0.2-0.1s0.1-0.1,0.1-0.1s0.3-0.7,1.3-0.8s1.2,0.8,1.1,1.1c-0.1,0.3-0.8,1.2-1.1,1.1
			c-0.2,0-0.1,0.3,0,0.4c0,0,0.2,0,0.1,0.8s-0.2,1.7-0.2,1.7s0,0.4-0.5,0.4c-0.4-0.1-0.4-0.3-0.4-0.5s0.1-1.1,0.1-1.1l-4,2.1
			c0,0-0.7,0.4-2,0.5c-1.3,0.1-2.8-0.1-3.3,0.2c-0.5,0.2-0.7,0.3-1.2,0.3s-0.9-0.6-0.7-1.1c0.1-0.5,0.7-1.4,1.4-1.6
			c0.7-0.2,0.9-0.3,1.5-0.6s1.8-0.9,2.5-1.1c0.8-0.2,2.8-0.9,3-1s1.5-0.7,1.8-0.6C1436.4,381.4,1436.4,381.4,1436.4,381.4z"/>
	</g>
	<g>
		<path class="st1" d="M1738,213.9c10.8-1.1,48.3-4.7,82.2-4.8c0.9,0,1.9,0.3,2.6,1c6.3,5.5,38.1,33.2,48.8,45.7
			c0.4,0.5,0,1.2-0.6,1l-6.7-1.5c-0.5-0.1-1.1-0.4-1.5-0.7c-2.7-2.1-15.2-10.6-50.7-22.2c-39.8-13-62.5-16.9-69.2-16.1
			c-0.4,0-0.9,0-1.3-0.1l-3.4-1C1737.3,214.9,1737.4,214,1738,213.9z"/>
		<g>
			<path class="st2" d="M1820.4,244.1c-0.2,0-0.4,0-0.6-0.1l-18.4-5.4c-0.7-0.2-1.2-0.7-1.4-1.4c-0.2-0.7,0-1.4,0.6-1.9l10.2-9.7
				c0.4-0.4,0.9-0.5,1.5-0.5c0.5,0.1,1,0.4,1.3,0.9l0,0l8.7,15.2c0.4,0.7,0.3,1.6-0.2,2.2C1821.6,243.8,1821,244.1,1820.4,244.1z
				 M1811.9,227l-10,9.6l18.5,5.6L1811.9,227z"/>
		</g>
		<path class="st2" d="M1815.5,237.2c0,0,0.3,0,0.5-0.2c0.1-0.2,0.2-0.3,0.2-0.3s0.5-1.4,2.4-1.5c1.9-0.1,2.2,1.5,2,2.2
			s-1.6,2.2-2.1,2.2c-0.5-0.1-0.3,0.5-0.1,0.8c0,0,0.3,0,0.2,1.5s-0.4,3.3-0.4,3.3s-0.1,0.8-0.9,0.7c-0.8-0.1-0.7-0.6-0.7-1
			c0-0.4,0.1-2.2,0.1-2.2l-7.6,4c0,0-1.3,0.8-3.7,1s-5.3-0.1-6.3,0.4c-1,0.5-1.3,0.6-2.4,0.5s-1.7-1.2-1.4-2.2
			c0.3-1,1.3-2.7,2.7-3.1c1.4-0.4,1.6-0.5,2.9-1.2c1.2-0.7,3.4-1.8,4.9-2.1c1.5-0.3,5.3-1.7,5.7-1.8c0.4-0.1,2.8-1.3,3.4-1.1
			C1815.5,237.2,1815.5,237.2,1815.5,237.2z"/>
	</g>
	<g>
		<path class="st1" d="M1583.2,493.5c-8.6-0.9-38.6-3.7-65.6-3.8c-0.8,0-1.5,0.3-2.1,0.8c-5.1,4.4-30.4,26.5-39,36.5
			c-0.3,0.4,0,0.9,0.5,0.8l5.3-1.2c0.4-0.1,0.8-0.3,1.2-0.6c2.2-1.7,12.1-8.5,40.4-17.7c31.8-10.4,49.9-13.5,55.3-12.9
			c0.3,0,0.7,0,1-0.1l2.7-0.8C1583.8,494.2,1583.7,493.5,1583.2,493.5z"/>
		<g>
			<path class="st2" d="M1517.4,517.5c-0.5,0-0.9-0.2-1.2-0.6c-0.4-0.5-0.5-1.2-0.1-1.8l6.9-12.1c0.2-0.4,0.6-0.6,1-0.7
				c0.4-0.1,0.8,0.1,1.2,0.4l8.1,7.7c0.4,0.4,0.6,1,0.4,1.5c-0.1,0.6-0.5,1-1.1,1.1l-14.7,4.3
				C1517.7,517.5,1517.6,517.5,1517.4,517.5z M1524.2,503.9l-6.8,12l0.3,0.8l-0.2-0.7l14.7-4.3l0.6-0.7l-0.5,0.5L1524.2,503.9z
				 M1524.3,503.8L1524.3,503.8L1524.3,503.8z"/>
		</g>
		<path class="st2" d="M1521.4,512c0,0-0.3,0-0.4-0.1c-0.1-0.1-0.1-0.2-0.1-0.2s-0.4-1.1-1.9-1.2s-1.8,1.2-1.6,1.7
			c0.1,0.5,1.3,1.8,1.7,1.7c0.4,0,0.2,0.4,0.1,0.6c0,0-0.2,0-0.1,1.2s0.3,2.6,0.3,2.6s0.1,0.7,0.7,0.6c0.7-0.1,0.5-0.5,0.6-0.8
			c0-0.3-0.1-1.8-0.1-1.8l6.1,3.2c0,0,1,0.6,3,0.8c2,0.1,4.2-0.1,5,0.3s1,0.5,1.9,0.4s1.3-0.9,1.1-1.7c-0.2-0.8-1.1-2.1-2.2-2.5
			c-1.1-0.3-1.3-0.4-2.3-1s-2.7-1.4-3.9-1.7c-1.2-0.3-4.2-1.4-4.6-1.5c-0.4-0.1-2.3-1.1-2.7-0.9C1521.4,512,1521.4,512,1521.4,512z"
			/>
	</g>
	<g>
		<path class="st1" d="M233.2,429.7c-10.3-1.1-46-4.5-78.3-4.6c-0.9,0-1.8,0.3-2.5,0.9c-6,5.2-36.3,31.6-46.5,43.5
			c-0.4,0.4,0,1.1,0.6,1l6.3-1.4c0.5-0.1,1-0.3,1.4-0.7c2.6-2,14.5-10.1,48.2-21.2c37.9-12.4,59.6-16.1,65.9-15.4
			c0.4,0,0.8,0,1.2-0.1l3.3-0.9C234,430.6,233.9,429.7,233.2,429.7z"/>
		<g>
			<path class="st2" d="M154.8,458.4c-0.6,0-1.1-0.3-1.5-0.7c-0.5-0.6-0.5-1.4-0.2-2.1l8.2-14.4c0.3-0.4,0.7-0.7,1.2-0.8
				c0.5-0.1,1,0.1,1.4,0.4l9.7,9.2c0.5,0.5,0.7,1.2,0.5,1.8c-0.2,0.7-0.6,1.2-1.3,1.4l-17.6,5.2C155.2,458.4,155,458.4,154.8,458.4z
				 M162.9,442.2l-8.2,14.3l0.4,1l-0.3-0.9l17.6-5.2l0.7-0.8l-0.6,0.6L162.9,442.2z M163,442L163,442L163,442z"/>
		</g>
		<path class="st2" d="M159.5,451.8c0,0-0.3,0-0.4-0.2c-0.1-0.2-0.2-0.2-0.2-0.2s-0.5-1.3-2.3-1.4c-1.8-0.1-2.1,1.5-1.9,2
			c0.2,0.6,1.5,2.1,2,2s0.2,0.5,0.1,0.8c0,0-0.3,0-0.2,1.4c0.1,1.4,0.4,3.2,0.4,3.2s0.1,0.8,0.8,0.7c0.8-0.1,0.7-0.6,0.7-1
			c0-0.4-0.1-2.1-0.1-2.1l7.3,3.9c0,0,1.2,0.8,3.6,0.9c2.3,0.2,5-0.1,6,0.3c0.9,0.4,1.2,0.6,2.3,0.5s1.6-1.1,1.3-2.1
			s-1.3-2.5-2.6-2.9s-1.6-0.5-2.7-1.1c-1.2-0.7-3.2-1.7-4.6-2s-5-1.6-5.4-1.8c-0.4-0.1-2.7-1.3-3.3-1.1
			C159.5,451.8,159.5,451.8,159.5,451.8z"/>
	</g>
	<g>
		<path class="st1" d="M633.6,443.5c-5.6-0.6-24.8-2.4-42.1-2.5c-0.5,0-1,0.2-1.3,0.5c-3.3,2.8-19.6,17-25,23.5
			c-0.2,0.2,0,0.6,0.3,0.5l3.4-0.8c0.3-0.1,0.5-0.2,0.8-0.4c1.4-1.1,7.8-5.4,26-11.4c20.4-6.7,32.1-8.7,35.5-8.3
			c0.2,0,0.4,0,0.7-0.1l1.8-0.5C634,444,634,443.5,633.6,443.5z"/>
		<g>
			<path class="st2" d="M591.4,459c-0.3,0-0.6-0.1-0.8-0.4c-0.3-0.3-0.3-0.8-0.1-1.2l4.4-7.8h0c0.1-0.2,0.4-0.4,0.7-0.4
				c0.3,0,0.6,0,0.8,0.2l5.2,5c0.3,0.3,0.4,0.6,0.3,1c-0.1,0.4-0.4,0.6-0.7,0.8l-9.5,2.8C591.6,458.9,591.5,459,591.4,459z
				 M595.7,450.2l-4.4,7.7l9.5-2.7L595.7,450.2z"/>
		</g>
		<path class="st2" d="M593.9,455.4c0,0-0.2,0-0.2-0.1c-0.1-0.1-0.1-0.1-0.1-0.1s-0.3-0.7-1.2-0.8c-1,0-1.1,0.8-1,1.1
			c0.1,0.3,0.8,1.1,1.1,1.1s0.1,0.3,0,0.4c0,0-0.2,0-0.1,0.8c0.1,0.7,0.2,1.7,0.2,1.7s0,0.4,0.5,0.4c0.4-0.1,0.4-0.3,0.4-0.5
			c0-0.2-0.1-1.1-0.1-1.1l3.9,2.1c0,0,0.7,0.4,1.9,0.5c1.3,0.1,2.7-0.1,3.2,0.2c0.5,0.2,0.7,0.3,1.2,0.3c0.6-0.1,0.9-0.6,0.7-1.1
			c-0.1-0.5-0.7-1.4-1.4-1.6c-0.7-0.2-0.8-0.3-1.5-0.6c-0.6-0.4-1.7-0.9-2.5-1.1c-0.8-0.2-2.7-0.9-2.9-0.9s-1.4-0.7-1.8-0.6
			C593.9,455.4,593.9,455.4,593.9,455.4z"/>
	</g>
	<g>
		<path class="st1" d="M736,818.7L429.6,645.9L346.9,698L151.9,559.3L0,635.9v182.7h496.8l-6.8-39l-41.5-24.6l-9.2-45.8L434,673
			l256,145.6H736z M241,752.2v-7.4l-8.7-8.2l-5.1-14l39.3,17.4L241,752.2z M275.7,735.9l-49.4-21l-120.4,79.7l42.9-94.5l-9.2-33.2
			l24.5-15.3l-14.3-68.9L327,711.3L275.7,735.9z"/>
		<polygon class="st1" points="509.6,778.7 545.7,818.7 591.7,818.7 546.4,784.2 		"/>
		<path class="st1" d="M1801.7,482.6l-247.1,170L1432.2,606L1257,739l-162,63.8l-96.5,15.8h113.4l165.9-63.6l156.8-119.1l-15.3,37.1
			l-13.3,41.4l-31.7,40.7l0.9,63.6h37.9l104.2-63.6l71.5,13.4l173.6-87.4l5.1,38.4l-22.5,46l2,53.2H1980V584.9L1801.7,482.6z
			 M1813.5,681.2l-49-26.7l-107.2,49.7l-81.7-42.5l223.7-152.6l-3.1,49.5l17.4,26.1l-17.4,38.2L1813.5,681.2z"/>
		<polygon class="st1" points="1694.5,762.4 1659.3,798.7 1582.7,818.7 1682.7,818.7 1701.1,787.3 		"/>
	</g>
	<g>
		<path class="st2" d="M357.7,290.7c-0.1-1-0.7-0.8-1.2-2.8c-0.6-2-1.1-3.2-1.1-3.2s-0.3-1-2-1c-1.7,0-2.1,0.7-2.1,0.7
			c-1,1.3-1.4,4-1.6,4.3c-0.1,0.3-0.3,0.9-0.9,1.2c-0.6,0.3-0.6,1.2-0.6,1.2s0,4.4,0.1,5.2s0.9,0.7,0.9,0.7s6.9,0,7.6,0
			c0.8,0,0.8-0.8,0.8-0.8S357.9,291.7,357.7,290.7z M353.5,285.4c-0.1,0.5-0.5,4.2-1.8,5.4c0,0-0.2,0.3-0.9,0.1
			c-0.7-0.2,0.3-4.3,0.3-4.3l0.6-1.7c0,0,0.3-0.8,1.1-0.6C353.6,284.5,353.6,285,353.5,285.4z"/>
		<path class="st1" d="M390.6,214.9c-1.7-8.9-13.6-25.4-35.4-26.3l-0.4,0c0,0-21.3-1.3-33.9,15.6c-12.7,16.9-3.8,32-0.8,38.2
			c3,6.2,21.5,27.2,21.5,27.2s6.5,7.2,9.4,13.7h4.5c0,0,4.4-8,12.4-16.7c8-8.7,12.3-14.9,18.3-24.1
			C392.2,233.2,392.2,223.8,390.6,214.9z"/>
	</g>
	<g>
		<path class="st2" d="M76.2,371c-0.1-0.6-0.4-0.4-0.7-1.6c-0.3-1.1-0.6-1.8-0.6-1.8s-0.2-0.6-1.1-0.6c-1,0-1.2,0.4-1.2,0.4
			c-0.5,0.7-0.8,2.3-0.9,2.4c-0.1,0.2-0.1,0.5-0.5,0.7c-0.3,0.2-0.3,0.6-0.3,0.6s0,2.5,0.1,2.9s0.5,0.4,0.5,0.4s3.8,0,4.3,0
			c0.4,0,0.4-0.4,0.4-0.4S76.2,371.6,76.2,371z M73.8,368.1c0,0.3-0.3,2.3-1,3c0,0-0.1,0.2-0.5,0.1c-0.4-0.1,0.2-2.4,0.2-2.4l0.3-1
			c0,0,0.2-0.4,0.6-0.3C73.9,367.6,73.8,367.8,73.8,368.1z"/>
		<path class="st1" d="M94.5,328.6c-0.9-5-7.6-14.2-19.8-14.7l-0.2,0c0,0-11.9-0.7-19,8.7c-7.1,9.5-2.1,17.9-0.4,21.4
			c1.7,3.5,12,15.2,12,15.2s3.6,4,5.3,7.7h2.5c0,0,2.5-4.5,7-9.4c4.5-4.9,6.9-8.3,10.3-13.5C95.5,338.8,95.5,333.6,94.5,328.6z"/>
	</g>
	<g>
		<path class="st2" d="M1566.3,123.9c-0.1-1-0.7-0.8-1.3-2.9c-0.6-2.1-1.1-3.3-1.1-3.3s-0.3-1.1-2.1-1.1s-2.2,0.8-2.2,0.8
			c-1,1.3-1.5,4.2-1.6,4.5c-0.1,0.3-0.3,0.9-0.9,1.2c-0.6,0.3-0.6,1.2-0.6,1.2s0,4.6,0.1,5.4c0.2,0.8,0.9,0.8,0.9,0.8s7.2,0,8,0
			c0.8,0,0.8-0.8,0.8-0.8S1566.4,124.9,1566.3,123.9z M1561.8,118.4c-0.1,0.5-0.5,4.4-1.9,5.6c0,0-0.2,0.3-1,0.1
			c-0.8-0.2,0.3-4.5,0.3-4.5l0.6-1.8c0,0,0.3-0.8,1.2-0.6C1562,117.4,1561.9,117.9,1561.8,118.4z"/>
		<path class="st1" d="M1600.5,44.8c-1.8-9.3-14.2-26.5-37-27.5l-0.4,0c0,0-22.2-1.4-35.4,16.3c-13.2,17.6-4,33.4-0.8,39.8
			c3.2,6.5,22.5,28.4,22.5,28.4s6.8,7.5,9.8,14.3h4.7c0,0,4.6-8.4,13-17.4c8.4-9.1,12.8-15.5,19.1-25.2
			C1602.3,63.8,1602.3,54.1,1600.5,44.8z"/>
	</g>
	<g>
		<path class="st2" d="M1750.7,406.7c-0.1-0.6-0.4-0.4-0.7-1.6c-0.3-1.1-0.6-1.8-0.6-1.8s-0.2-0.6-1.1-0.6c-1,0-1.2,0.4-1.2,0.4
			c-0.5,0.7-0.8,2.2-0.9,2.4c-0.1,0.2-0.1,0.5-0.5,0.7c-0.3,0.2-0.3,0.6-0.3,0.6s0,2.4,0.1,2.9c0.1,0.4,0.5,0.4,0.5,0.4s3.8,0,4.3,0
			c0.4,0,0.4-0.4,0.4-0.4S1750.7,407.3,1750.7,406.7z M1748.3,403.8c0,0.3-0.3,2.3-1,3c0,0-0.1,0.2-0.5,0.1
			c-0.4-0.1,0.2-2.4,0.2-2.4l0.3-1c0,0,0.2-0.4,0.6-0.3C1748.4,403.3,1748.3,403.5,1748.3,403.8z"/>
		<path class="st1" d="M1768.9,364.5c-0.9-5-7.6-14.2-19.7-14.7l-0.2,0c0,0-11.9-0.7-18.9,8.7c-7.1,9.4-2.1,17.8-0.4,21.3
			c1.7,3.4,12,15.1,12,15.1s3.6,4,5.2,7.7h2.5c0,0,2.5-4.5,6.9-9.3c4.5-4.8,6.8-8.3,10.2-13.4
			C1769.9,374.7,1769.9,369.5,1768.9,364.5z"/>
	</g>
</g>
</svg>
